<?xml version="1.0" encoding="UTF-8" standalone="no"?>
<!DOCTYPE svg PUBLIC "-//W3C//DTD SVG 1.1//EN" "http://www.w3.org/Graphics/SVG/1.1/DTD/svg11.dtd">
<svg width="100%" height="100%" viewBox="0 0 501 171" version="1.1" xmlns="http://www.w3.org/2000/svg" xmlns:xlink="http://www.w3.org/1999/xlink" xml:space="preserve" xmlns:serif="http://www.serif.com/" style="fill-rule:evenodd;clip-rule:evenodd;stroke-linejoin:round;stroke-miterlimit:2;">
    <path d="M197.192,101.999L151.48,112.355C176.575,122.334 204.817,128.714 211.312,150.065C214.729,161.281 210.81,161.097 226.9,165.025C233.424,166.608 252.719,173.596 257.96,168.056C263.018,162.728 246.522,150.547 254.264,143.327C257.855,139.997 265.19,142.024 269.283,139.157C274.736,135.326 271.107,130.625 275.228,127.209C279.157,123.966 286.733,124.931 291.019,122.363C295.332,119.796 297.206,115.22 301.558,112.605C311.355,106.708 325.166,108.156 334.712,102.171C342.453,97.311 352.057,87.563 357.848,83.538L197.183,101.987L197.192,101.999Z" style="fill:url(#_Linear1);fill-rule:nonzero;"/>
    <path d="M336.99,46.327C317.348,26.69 278.267,36.274 297.137,7.324C288.74,6.967 280.255,6.677 272.457,6.971C260.941,7.415 248.723,9.992 236.87,10.007C225.057,10.012 215.501,8.472 204.141,10.953C197.876,12.318 194.711,15.146 187.057,15.972C180.667,16.662 178.457,15.504 172.821,15.914C161.924,16.739 151.037,17.781 141.51,21.936C134.743,24.884 131.751,26.941 124.426,28.88C118.809,30.381 113.732,27.828 110.17,32.842C104.176,41.259 124.783,45.81 130.13,51.736L130.14,51.741L135.815,60.683C132.051,69.978 114.977,74.153 113.25,84.524C107.758,117.828 234.68,100.295 259.264,97.694C282.119,95.281 304.878,94.055 326.537,87.569C334.191,85.272 341.43,82.106 348.698,78.965C341.497,77.3 334.306,75.978 327.106,75.978C317.222,66.094 336.99,56.21 336.99,46.327Z" style="fill:url(#_Linear2);fill-rule:nonzero;"/>
    <path d="M271.733,7.97C260.489,8.4 248.51,10.986 236.938,10.996C225.375,11.016 216.022,9.461 204.904,11.947C198.784,13.317 195.676,16.135 188.206,16.966C181.942,17.656 179.78,16.488 174.268,16.913C163.613,17.738 152.957,18.766 143.643,22.931C137.041,25.879 134.107,27.926 126.945,29.885C121.454,31.376 116.483,28.814 112.989,33.828C111.329,36.207 111.763,38.287 113.337,40.164C120.025,37.182 127.621,36.453 136.685,35.729C146.433,34.735 154.791,21.82 167.32,22.814C175.678,22.814 182.637,29.764 192.386,28.779C203.524,26.786 204.905,12.878 213.263,15.855C234.14,22.814 250.837,22.814 267.555,11.883C271.734,9.895 278.693,10.889 281.483,12.877C285.247,14.895 288.934,16.014 292.592,16.68C293.199,14.35 294.522,11.57 296.539,8.346C288.103,7.975 279.561,7.666 271.733,7.97Z" style="fill:url(#_Linear3);fill-rule:nonzero;"/>
    <path d="M500,22.135C491.11,17.69 483.515,14.36 473.216,11.966C468.544,10.88 461.644,10.996 457.445,9.312C453.324,7.652 451.423,3.984 447.195,2.333C431.269,-3.893 386.552,3.245 376.341,13.085C369.324,10.778 362.607,9.615 354.923,8.794C341.894,7.395 326.895,8.451 312.696,7.969C307.686,7.8 302.426,7.549 297.137,7.323C278.267,36.274 317.348,26.69 336.99,46.326C336.99,52.455 329.393,58.584 325.977,64.713L325.977,64.718C325.503,65.568 325.137,66.416 324.857,67.261C324.799,67.44 324.751,67.614 324.703,67.792C324.481,68.617 324.337,69.442 324.355,70.268C324.365,70.301 324.355,70.331 324.355,70.36C324.384,71.19 324.626,72.025 324.973,72.855C325.06,73.052 325.157,73.255 325.262,73.453C325.706,74.293 326.266,75.138 327.106,75.977C330.764,75.977 334.422,76.33 338.081,76.879C340.58,77.26 343.09,77.82 345.6,78.356C354.364,80.234 363.119,82.738 371.882,84.36C378.484,79.703 379.796,73.284 389.13,69.597C402.787,64.211 418.23,62.691 433.558,59.718C435.286,59.385 437.93,59.009 440.671,58.497C448.334,58.299 456.075,58.415 462.86,56.484C473.197,53.546 475.977,46.62 483.032,41.577C488.081,37.968 493.872,35.94 497.038,32.118C498.465,30.392 494.354,25.773 500,22.135Z" style="fill:rgb(242,200,240);fill-rule:nonzero;"/>
    <path d="M494.334,23.119L494.305,23.119C485.609,18.688 478.187,15.353 468.111,12.96C463.546,11.879 456.798,11.99 452.687,10.306C448.652,8.646 446.79,4.983 442.659,3.327C427.071,-2.908 386.176,6.227 376.206,16.068C369.333,13.756 359.913,10.6 352.404,9.789C339.644,8.394 324.993,9.446 311.093,8.959C306.403,8.795 301.48,8.563 296.538,8.346C294.52,11.57 293.198,14.35 292.591,16.68C305.148,18.953 317.271,14.866 330.204,14.866C332.983,14.866 334.383,17.848 337.163,18.838C344.122,21.82 351.091,17.849 358.059,18.838C365.009,20.831 370.578,25.797 378.927,23.814C395.634,18.838 406.773,0.959 422.08,6.914C437.407,13.868 454.114,18.838 473.601,19.832C480.56,19.832 480.56,26.786 477.771,28.774C465.146,36.665 453.419,47.426 447.908,59.072C451.402,58.836 454.809,58.396 457.975,57.484C468.08,54.545 470.802,47.62 477.704,42.572C482.645,38.963 488.311,36.935 491.409,33.103C492.848,31.376 488.814,26.763 494.334,23.119Z" style="fill:rgb(246,165,255);fill-rule:nonzero;"/>
    <path d="M152.899,43.793L152.889,43.793L152.889,43.813L152.899,43.793Z" style="fill:url(#_Linear4);fill-rule:nonzero;"/>
    <path d="M325.977,64.714C324.317,65.052 322.676,65.413 321.161,65.872C312.262,68.569 302.118,75.697 292.06,79.563C276.539,85.518 258.548,88.983 241.031,91.319C225.018,93.457 211.177,90.971 195.483,90.474C181.266,90.015 165.485,93.837 151.432,90.271C135.757,86.299 134.194,77.545 148.584,70.789C159.018,65.896 172.261,67.296 181.71,61.649C192.52,55.192 191.747,49.738 179.924,46.775C166.411,43.373 162.136,42.336 151.48,36.829L152.889,43.793L152.899,43.793L152.889,43.813L152.889,43.793C140.014,44.208 131.897,45.902 120.082,49.976C108.519,53.962 98.559,54.541 86.011,56.712C71.842,59.154 64.584,64.043 48.89,65.674C36.826,66.929 27.801,65.37 16.489,65.805C17.676,67.18 17.222,68.932 19.317,70.617C13.989,72.069 5.419,73.483 7.551,78.3C3.555,80.119 4.009,82.103 2.252,84.362C4.183,84.994 4.945,85.829 6.47,86.475C-4.292,94.704 -1.068,99.761 11.991,103.414C23.844,106.729 32.569,110.455 44.731,111.362C67.441,113.06 86.388,109.489 106.252,113.572C112.43,114.837 116.357,117.192 123.075,117.327C129.097,117.433 134.137,113.775 140.043,113.331C151.79,112.463 165.129,117.906 177.087,115.339C182.792,114.104 185.89,110.185 191.218,109.355C196.893,108.477 206.903,110.571 212.684,111.363C228.426,113.506 237.836,111.363 251.108,108.39C264.389,105.408 273.548,100.977 285.585,99.244C292.602,98.225 300.517,95.084 306.616,94.428C314.183,93.603 319.212,96.952 326.538,96.455C333.41,95.981 337.715,93.072 343.699,91.306C349.751,89.516 356.497,89.926 362.877,88.309C366.825,87.31 369.653,85.935 371.883,84.362C356.951,81.601 342.029,75.979 327.108,75.979C323.351,72.223 323.882,68.469 325.977,64.714Z" style="fill:url(#_Linear5);fill-rule:nonzero;"/>
    <path d="M330.146,85.566C323.082,86.527 314.597,82.695 310.34,82.695C276.404,80.784 241.04,113.32 205.694,92.269C198.629,88.437 187.307,97.052 178.823,101.834C173.168,103.75 170.34,98.958 166.083,98.012C153.362,96.096 144.878,105.666 133.557,105.666C105.277,104.7 78.406,98.012 48.698,98.012C34.557,98.958 13.343,92.269 20.408,80.783C31.729,64.514 62.847,73.124 81.215,63.559C105.278,50.166 134.976,53.029 161.857,46.34C163.961,46.05 165.824,45.408 167.426,44.52C161.635,42.899 157.417,41.273 150.535,37.827L151.954,44.53C139.165,44.93 131.077,46.562 119.34,50.485C107.855,54.322 97.951,54.881 85.472,56.962C71.409,59.317 64.19,64.032 48.602,65.601C36.605,66.808 27.638,65.307 16.384,65.727C17.571,67.049 17.127,68.728 19.202,70.355C13.913,71.759 5.39,73.115 7.504,77.748C3.547,79.51 3.991,81.416 2.254,83.588C4.175,84.201 4.947,85.002 6.433,85.629C-4.252,93.559 -1.047,98.423 11.925,101.937C23.71,105.131 32.378,108.717 44.462,109.595C67.027,111.227 85.849,107.8 105.577,111.728C111.725,112.955 115.635,115.212 122.313,115.338C128.307,115.444 133.307,111.921 139.185,111.496C150.844,110.646 164.106,115.897 175.998,113.427C181.663,112.23 184.723,108.447 190.031,107.664C195.648,106.825 205.609,108.832 211.343,109.595C227.008,111.66 236.351,109.585 249.535,106.729C262.739,103.857 271.841,99.591 283.79,97.921C290.759,96.946 298.644,93.92 304.695,93.278C312.234,92.487 317.214,95.725 324.492,95.237C331.325,94.789 335.601,91.98 341.537,90.276C347.559,88.558 354.258,88.954 360.609,87.395C364.335,86.478 367.027,85.228 369.189,83.804C363.967,82.728 358.746,81.415 353.534,80.127C346.255,82.574 338.64,84.524 330.146,85.566Z" style="fill:url(#_Linear6);fill-rule:nonzero;"/>
    <path d="M430.642,55.814L430.632,55.824C416.752,59.11 401.512,60.114 386.455,60.998C382.575,65.756 378.164,70.123 371.166,73.125C365.385,75.731 359.574,78.096 353.532,80.128C358.744,81.416 363.966,82.729 369.187,83.805C376.031,79.298 377.247,72.986 386.696,69.376C400.266,64.197 415.603,62.73 430.843,59.863C435.38,59.005 446.257,57.889 448.709,54.835C454.549,47.548 432.862,55.289 430.642,55.814Z" style="fill:rgb(214,96,205);fill-rule:nonzero;"/>
    <defs>
        <linearGradient id="_Linear1" x1="0" y1="0" x2="1" y2="0" gradientUnits="userSpaceOnUse" gradientTransform="matrix(206.367,0,0,206.367,151.48,126.85)"><stop offset="0" style="stop-color:rgb(81,48,24);stop-opacity:1"/><stop offset="0.01" style="stop-color:rgb(81,48,24);stop-opacity:1"/><stop offset="0.27" style="stop-color:rgb(64,51,24);stop-opacity:1"/><stop offset="1" style="stop-color:rgb(39,29,21);stop-opacity:1"/></linearGradient>
        <linearGradient id="_Linear2" x1="0" y1="0" x2="1" y2="0" gradientUnits="userSpaceOnUse" gradientTransform="matrix(-43.4328,-119.337,119.337,-43.4328,243.456,118.001)"><stop offset="0" style="stop-color:rgb(163,110,55);stop-opacity:1"/><stop offset="0.06" style="stop-color:rgb(163,110,55);stop-opacity:1"/><stop offset="0.67" style="stop-color:rgb(121,79,34);stop-opacity:1"/><stop offset="1" style="stop-color:rgb(120,53,34);stop-opacity:1"/></linearGradient>
        <linearGradient id="_Linear3" x1="0" y1="0" x2="1" y2="0" gradientUnits="userSpaceOnUse" gradientTransform="matrix(-184.606,2.26078e-14,-2.26078e-14,-184.606,296.539,24.0054)"><stop offset="0" style="stop-color:rgb(204,167,101);stop-opacity:1"/><stop offset="0.01" style="stop-color:rgb(204,167,101);stop-opacity:1"/><stop offset="1" style="stop-color:rgb(163,110,55);stop-opacity:1"/></linearGradient>
        <linearGradient id="_Linear4" x1="0" y1="0" x2="1" y2="0" gradientUnits="userSpaceOnUse" gradientTransform="matrix(0.0097,0,0,0.0097,152.889,43.8027)"><stop offset="0" style="stop-color:rgb(163,110,55);stop-opacity:1"/><stop offset="0.06" style="stop-color:rgb(163,110,55);stop-opacity:1"/><stop offset="1" style="stop-color:rgb(121,79,34);stop-opacity:1"/></linearGradient>
        <linearGradient id="_Linear5" x1="0" y1="0" x2="1" y2="0" gradientUnits="userSpaceOnUse" gradientTransform="matrix(371.881,0,0,371.881,0,77.0781)"><stop offset="0" style="stop-color:rgb(163,110,55);stop-opacity:1"/><stop offset="0.06" style="stop-color:rgb(163,110,55);stop-opacity:1"/><stop offset="1" style="stop-color:rgb(121,79,34);stop-opacity:1"/></linearGradient>
        <linearGradient id="_Linear6" x1="0" y1="0" x2="1" y2="0" gradientUnits="userSpaceOnUse" gradientTransform="matrix(369.178,0,0,369.178,0.0098,76.584)"><stop offset="0" style="stop-color:rgb(204,167,101);stop-opacity:1"/><stop offset="0.01" style="stop-color:rgb(204,167,101);stop-opacity:1"/><stop offset="1" style="stop-color:rgb(163,110,55);stop-opacity:1"/></linearGradient>
    </defs>
</svg>
